<svg width="14" height="15" viewBox="0 0 14 15" fill="none" xmlns="http://www.w3.org/2000/svg">
<g id="alert-triangle" clip-path="url(#clip0_1433_110)">
<path id="Icon" d="M6.99983 5.16662V7.49996M6.99983 9.83329H7.00566M6.00233 2.16829L1.0615 10.4166C0.959627 10.593 0.905726 10.793 0.905156 10.9968C0.904586 11.2005 0.957365 11.4008 1.05824 11.5778C1.15912 11.7547 1.30459 11.9022 1.48016 12.0055C1.65573 12.1088 1.8553 12.1644 2.059 12.1666H11.9407C12.1444 12.1644 12.3439 12.1088 12.5195 12.0055C12.6951 11.9022 12.8405 11.7547 12.9414 11.5778C13.0423 11.4008 13.0951 11.2005 13.0945 10.9968C13.0939 10.793 13.04 10.593 12.9382 10.4166L7.99733 2.16829C7.89334 1.99685 7.74692 1.85511 7.57219 1.75674C7.39747 1.65837 7.20034 1.60669 6.99983 1.60669C6.79932 1.60669 6.60219 1.65837 6.42746 1.75674C6.25274 1.85511 6.10632 1.99685 6.00233 2.16829Z" stroke="#CC3333" stroke-width="1.5" stroke-linecap="round" stroke-linejoin="round"/>
</g>
<defs>
<clipPath id="clip0_1433_110">
<rect width="14" height="14" fill="white" transform="translate(0 0.5)"/>
</clipPath>
</defs>
</svg>
