<svg width="25" height="25" viewBox="0 0 25 25" fill="none" xmlns="http://www.w3.org/2000/svg">
<g id="dollar-sign" clip-path="url(#clip0_1298_11038)">
<path id="Icon" d="M12.5 1.8042V23.8042M17.5 5.8042H10C9.07174 5.8042 8.1815 6.17295 7.52513 6.82933C6.86875 7.4857 6.5 8.37594 6.5 9.3042C6.5 10.2325 6.86875 11.1227 7.52513 11.7791C8.1815 12.4355 9.07174 12.8042 10 12.8042H15C15.9283 12.8042 16.8185 13.1729 17.4749 13.8293C18.1313 14.4857 18.5 15.3759 18.5 16.3042C18.5 17.2325 18.1313 18.1227 17.4749 18.7791C16.8185 19.4355 15.9283 19.8042 15 19.8042H6.5" stroke="#0150B7" stroke-width="2" stroke-linecap="round" stroke-linejoin="round"/>
</g>
<defs>
<clipPath id="clip0_1298_11038">
<rect width="24" height="24" fill="white" transform="translate(0.5 0.804199)"/>
</clipPath>
</defs>
</svg>
