<svg width="72" height="72" viewBox="0 0 72 72" fill="none" xmlns="http://www.w3.org/2000/svg">
<circle cx="36" cy="36" r="36" fill="#BF1D26"/>
<path d="M39.8447 50.2281C39.8447 51.0566 39.1732 51.7281 38.3447 51.7281L33.6554 51.7281C32.827 51.7282 32.1554 51.0566 32.1554 50.2282L32.1554 46.9369C32.1554 46.1085 32.827 45.4369 33.6554 45.4369L38.3447 45.4369C39.1732 45.4369 39.8447 46.1085 39.8447 46.9369L39.8447 50.2281ZM39.8447 37.6456C39.8447 38.4741 39.1732 39.1456 38.3447 39.1456L33.6554 39.1456C32.827 39.1456 32.1554 38.4741 32.1554 37.6456L32.1554 21.7718C32.1554 20.9434 32.827 20.2718 33.6554 20.2718L38.3447 20.2718C39.1732 20.2718 39.8447 20.9434 39.8447 21.7718L39.8447 37.6456Z" fill="white"/>
</svg>
