<svg width="225" height="125" viewBox="0 0 225 125" fill="none" xmlns="http://www.w3.org/2000/svg">
<path d="M33.2365 65.1087L30.2668 55.3897H15.3297L12.3601 65.1087H3L17.4621 24.1145H28.0832L42.6 65.1087H33.2399H33.2365ZM28.1925 48.1294L25.2229 38.6351C25.0349 38.0017 24.7889 37.1878 24.4813 36.1934C24.1737 35.1991 23.8662 34.1843 23.5552 33.149C23.2477 32.1172 22.9982 31.2182 22.8137 30.4553C22.6257 31.2182 22.3694 32.1649 22.0413 33.2886C21.7133 34.4124 21.4023 35.4817 21.1016 36.4863C20.8009 37.4909 20.589 38.2094 20.4557 38.6385L17.5134 48.1328H28.1891L28.1925 48.1294Z" fill="#FFFF"/>
<path d="M54.1915 65.1086H45.6448V21.6558H54.1915V65.1086Z" fill="#FFFF"/>
<path d="M70.2701 65.1086H61.7234V21.6558H70.2701V65.1086Z" fill="#FFFF"/>
<path d="M90.6373 33.2478C94.8407 33.2478 98.0632 34.1605 100.305 35.9857C102.547 37.811 103.668 40.583 103.668 44.3085V65.1121H97.6975L96.0435 60.869H95.818C94.9227 61.9859 94.0068 62.8986 93.0739 63.6069C92.1376 64.3152 91.0645 64.8362 89.8513 65.17C88.6348 65.5071 87.1619 65.674 85.4225 65.674C83.5737 65.674 81.9163 65.3198 80.4503 64.6115C78.9843 63.9032 77.8292 62.8203 76.9885 61.3593C76.1479 59.8984 75.7275 58.0425 75.7275 55.7881C75.7275 52.4747 76.8963 50.033 79.2303 48.4597C81.5643 46.8864 85.0671 46.0146 89.7386 45.8478L95.1755 45.6809V44.3119C95.1755 42.6739 94.745 41.4718 93.8872 40.709C93.026 39.9462 91.8334 39.5648 90.299 39.5648C88.7646 39.5648 87.2986 39.7794 85.8428 40.2084C84.387 40.6375 82.9278 41.1756 81.4721 41.8294L78.6425 36.0777C80.3033 35.2025 82.1692 34.5146 84.2333 34.0106C86.2973 33.51 88.4332 33.258 90.6373 33.258V33.2478ZM95.1755 50.646L91.8676 50.7583C89.103 50.8333 87.1824 51.327 86.1094 52.2397C85.0329 53.1523 84.4964 54.3544 84.4964 55.8426C84.4964 57.1469 84.8791 58.0731 85.6446 58.6214C86.4101 59.1697 87.4114 59.4455 88.6416 59.4455C90.4733 59.4455 92.0179 58.9075 93.2789 57.8245C94.5399 56.745 95.1687 55.2092 95.1687 53.217V50.646H95.1755Z" fill="#FFFF"/>
<path d="M128.522 33.3022C128.952 33.3022 129.451 33.3261 130.022 33.3703C130.593 33.418 131.054 33.4793 131.41 33.5508L130.764 41.5365C130.483 41.4445 130.087 41.373 129.571 41.3253C129.058 41.2777 128.614 41.2538 128.242 41.2538C127.138 41.2538 126.072 41.3934 125.033 41.6727C123.997 41.9519 123.068 42.4014 122.244 43.028C121.421 43.6512 120.771 44.4719 120.296 45.4833C119.821 46.4981 119.582 47.7411 119.582 49.2122V65.1018H111.035V33.8811H117.508L118.769 39.1288H119.189C119.804 38.0664 120.577 37.0958 121.499 36.2104C122.425 35.325 123.481 34.6201 124.667 34.0889C125.853 33.5576 127.138 33.2954 128.522 33.2954V33.3022Z" fill="#FFFF"/>
<path d="M139.949 21.6592C141.221 21.6592 142.314 21.952 143.227 22.5378C144.139 23.1235 144.6 24.22 144.6 25.8206C144.6 27.4211 144.142 28.4972 143.227 29.1034C142.311 29.7095 141.217 30.0126 139.949 30.0126C138.681 30.0126 137.564 29.7095 136.655 29.1034C135.749 28.4972 135.295 27.4041 135.295 25.8206C135.295 24.2371 135.746 23.1269 136.655 22.5378C137.561 21.952 138.658 21.6592 139.949 21.6592ZM144.207 33.8914V65.112H135.661V33.8914H144.207Z" fill="#FFFF"/>
<path d="M164.575 33.2478C168.778 33.2478 172 34.1605 174.242 35.9857C176.484 37.811 177.605 40.583 177.605 44.3085V65.1121H171.635L169.981 60.869H169.755C168.86 61.9859 167.944 62.8986 167.011 63.6069C166.075 64.3152 165.002 64.8362 163.789 65.17C162.572 65.5071 161.099 65.674 159.36 65.674C157.511 65.674 155.854 65.3198 154.388 64.6115C152.922 63.9032 151.766 62.8203 150.926 61.3593C150.085 59.8984 149.665 58.0425 149.665 55.7881C149.665 52.4747 150.834 50.033 153.168 48.4597C155.502 46.8864 159.004 46.0146 163.676 45.8478L169.113 45.6809V44.3119C169.113 42.6739 168.682 41.4718 167.824 40.709C166.963 39.9462 165.771 39.5648 164.236 39.5648C162.702 39.5648 161.236 39.7794 159.78 40.2084C158.324 40.6375 156.865 41.1756 155.409 41.8294L152.58 36.0777C154.241 35.2025 156.106 34.5146 158.171 34.0106C160.235 33.51 162.37 33.258 164.575 33.258V33.2478ZM169.113 50.646L165.805 50.7583C163.04 50.8333 161.12 51.327 160.047 52.2397C158.97 53.1523 158.434 54.3544 158.434 55.8426C158.434 57.1469 158.816 58.0731 159.582 58.6214C160.347 59.1697 161.349 59.4455 162.579 59.4455C164.411 59.4455 165.955 58.9075 167.216 57.8245C168.477 56.745 169.106 55.2092 169.106 53.217V50.646H169.113Z" fill="#FFFF"/>
<path d="M197.555 66.6761V32.108H204.433V66.6761H197.555ZM183.722 52.8182V45.9403H218.29V52.8182H183.722Z" fill="#FFFF"/>
<path d="M63.7193 113V76.87H73.528V105.097H88.1353V113H63.7193ZM92.2414 113V85.9025H101.98V113H92.2414ZM97.1105 83.0798C95.7932 83.0798 94.6641 82.6446 93.7233 81.7743C92.7824 80.904 92.3119 79.8573 92.3119 78.6341C92.3119 77.411 92.7824 76.3642 93.7233 75.4939C94.6641 74.6236 95.7932 74.1884 97.1105 74.1884C98.4395 74.1884 99.5685 74.6236 100.498 75.4939C101.439 76.3642 101.909 77.411 101.909 78.6341C101.909 79.8573 101.439 80.904 100.498 81.7743C99.5685 82.6446 98.4395 83.0798 97.1105 83.0798ZM134.25 85.9025L125.147 113H113.857L104.754 85.9025H114.986L119.361 103.826H119.643L124.018 85.9025H134.25ZM149.18 113.494C146.286 113.494 143.793 112.941 141.7 111.836C139.618 110.718 138.013 109.119 136.883 107.037C135.766 104.944 135.208 102.439 135.208 99.5218C135.208 96.7227 135.772 94.2764 136.901 92.1829C138.03 90.0894 139.624 88.4605 141.682 87.2962C143.74 86.1318 146.169 85.5496 148.968 85.5496C151.014 85.5496 152.867 85.8672 154.525 86.5023C156.183 87.1374 157.601 88.0606 158.777 89.272C159.953 90.4716 160.858 91.93 161.494 93.6471C162.129 95.3643 162.446 97.299 162.446 99.4512V101.709H138.242V96.3463H153.484C153.473 95.5701 153.273 94.8879 152.884 94.2999C152.508 93.7001 151.996 93.2355 151.35 92.9062C150.715 92.5651 149.991 92.3946 149.18 92.3946C148.392 92.3946 147.668 92.5651 147.01 92.9062C146.351 93.2355 145.822 93.6942 145.422 94.2822C145.034 94.8703 144.828 95.5583 144.805 96.3463V102.133C144.805 103.003 144.987 103.779 145.351 104.461C145.716 105.144 146.239 105.679 146.922 106.067C147.604 106.455 148.427 106.649 149.391 106.649C150.062 106.649 150.673 106.555 151.226 106.367C151.791 106.179 152.273 105.908 152.673 105.555C153.073 105.191 153.367 104.755 153.555 104.25H162.446C162.14 106.132 161.417 107.766 160.276 109.154C159.135 110.53 157.624 111.6 155.742 112.365C153.872 113.118 151.685 113.494 149.18 113.494ZM177.711 76.87L176.793 101.709H168.749L167.831 76.87H177.711ZM172.771 113.565C171.407 113.565 170.236 113.088 169.26 112.136C168.296 111.171 167.82 110.001 167.831 108.625C167.82 107.284 168.296 106.137 169.26 105.185C170.236 104.232 171.407 103.756 172.771 103.756C174.065 103.756 175.206 104.232 176.193 105.185C177.193 106.137 177.699 107.284 177.711 108.625C177.699 109.542 177.458 110.377 176.987 111.13C176.529 111.871 175.929 112.465 175.188 112.912C174.447 113.347 173.641 113.565 172.771 113.565Z" fill="#FFFF"/>
<path d="M35.2215 85.4045C36.484 86.6656 37.4855 88.1632 38.1688 89.8116C38.8522 91.46 39.2039 93.2269 39.2039 95.0113C39.2039 96.7957 38.8522 98.5627 38.1688 100.211C37.4855 101.859 36.484 103.357 35.2215 104.618M16.0305 104.595C14.768 103.334 13.7665 101.837 13.0832 100.188C12.3999 98.54 12.0481 96.7731 12.0481 94.9887C12.0481 93.2043 12.3999 91.4373 13.0832 89.7889C13.7665 88.1405 14.768 86.643 16.0305 85.3819M41.626 79C45.8686 83.2439 48.252 88.9991 48.252 95C48.252 101.001 45.8686 106.756 41.626 111M9.626 111C5.38337 106.756 3 101.001 3 95C3 88.9991 5.38337 83.2439 9.626 79M30.1522 95C30.1522 97.4997 28.1257 99.5262 25.626 99.5262C23.1263 99.5262 21.0998 97.4997 21.0998 95C21.0998 92.5003 23.1263 90.4738 25.626 90.4738C28.1257 90.4738 30.1522 92.5003 30.1522 95Z" stroke="#FFFF" stroke-width="4.52617" stroke-linecap="round" stroke-linejoin="round"/>
</svg>
