<svg width="16" height="17" viewBox="0 0 16 17" fill="none" xmlns="http://www.w3.org/2000/svg">
<path id="Vector" d="M11.4351 10.3466H10.7124L10.4563 10.0996C11.3528 9.0567 11.8925 7.70279 11.8925 6.22995C11.8925 2.94578 9.23042 0.283691 5.94625 0.283691C2.66209 0.283691 0 2.94578 0 6.22995C0 9.51411 2.66209 12.1762 5.94625 12.1762C7.4191 12.1762 8.77301 11.6365 9.81589 10.74L10.0629 10.9961V11.7188L14.6369 16.2837L16 14.9206L11.4351 10.3466ZM5.94625 10.3466C3.66838 10.3466 1.82962 8.50782 1.82962 6.22995C1.82962 3.95207 3.66838 2.11331 5.94625 2.11331C8.22413 2.11331 10.0629 3.95207 10.0629 6.22995C10.0629 8.50782 8.22413 10.3466 5.94625 10.3466Z" fill="#ACB3BF"/>
</svg>
